<svg width="23" height="23" viewBox="0 0 23 23" fill="none" xmlns="http://www.w3.org/2000/svg">
<g id="icn bxs-star">
<path id="Vector" d="M20.1308 8.41927C20.0731 8.24946 19.967 8.10025 19.8255 7.99006C19.684 7.87987 19.5133 7.81353 19.3346 7.79922L14.1054 7.38371L11.8426 2.3747C11.7706 2.21337 11.6533 2.07634 11.5051 1.98016C11.3569 1.88397 11.184 1.83274 11.0073 1.83264C10.8306 1.83254 10.6577 1.88359 10.5094 1.97961C10.361 2.07563 10.2437 2.21253 10.1714 2.37378L7.9086 7.38371L2.67945 7.79922C2.50376 7.81314 2.3358 7.87738 2.19566 7.98425C2.05552 8.09113 1.94914 8.23612 1.88925 8.40187C1.82935 8.56762 1.81848 8.74712 1.85793 8.91889C1.89737 9.09066 1.98547 9.24743 2.11168 9.37044L5.97599 13.1375L4.60931 19.0555C4.56782 19.2347 4.58112 19.4221 4.64749 19.5936C4.71386 19.7651 4.83024 19.9127 4.98153 20.0172C5.13282 20.1217 5.31202 20.1783 5.4959 20.1797C5.67977 20.1811 5.85982 20.1272 6.01268 20.025L11.007 16.6955L16.0014 20.025C16.1576 20.1288 16.3419 20.1822 16.5294 20.1781C16.7168 20.1739 16.8986 20.1125 17.0501 20.002C17.2017 19.8916 17.3157 19.7373 17.377 19.5601C17.4383 19.3828 17.4438 19.1911 17.3928 19.0106L15.7152 13.1403L19.8758 9.39612C20.1482 9.15031 20.2482 8.7669 20.1308 8.41927Z" fill="#F3CD03"/>
</g>
</svg>
